<?xml version="1.0" encoding="iso-8859-1"?>
<!-- Generator: Adobe Illustrator 19.0.0, SVG Export Plug-In . SVG Version: 6.00 Build 0)  -->
<svg version="1.1" id="Layer_1" xmlns="http://www.w3.org/2000/svg" xmlns:xlink="http://www.w3.org/1999/xlink" x="0px" y="0px"
	 viewBox="0 0 283.644 283.644" style="enable-background:new 0 0 283.644 283.644;" xml:space="preserve">
<g>
	<g>
		<g>
			<path style="fill:#4EFFBB;" d="M146.936,16.418c-73.7,0-133.613,59.951-133.613,133.613s59.912,133.613,133.613,133.613
				c73.661,0,133.613-59.951,133.613-133.613S220.596,16.418,146.936,16.418z"/>
		</g>
		<g>
			<g id="XMLID_14_">
				<g>
					<path style="fill:#222051;" d="M136.439,112.621c11.775,0,21.34,9.566,21.34,21.301c0,11.775-9.566,21.34-21.34,21.34
						c-11.735,0-21.301-9.566-21.301-21.34C115.138,122.187,124.703,112.621,136.439,112.621z"/>
					<path style="fill:#302C58;" d="M208.859,205.763c9.914-2.131,19.249-4.724,27.961-7.669
						c-9.178,14.251-21.34,26.413-35.591,35.63C204.174,225.011,206.728,215.677,208.859,205.763z"/>
					<path style="fill:#302C58;" d="M236.82,69.09c-8.715-2.942-18.086-5.5-27.961-7.63c-2.131-9.914-4.685-19.249-7.63-27.961
						C215.444,42.716,227.603,54.84,236.82,69.09z"/>
					<path style="fill:#302C58;" d="M246.928,88.378c5.731,13.941,8.947,29.241,8.947,45.235s-3.216,31.294-8.947,45.235
						c-10.38,4.415-22.23,8.249-35.164,11.348c2.828-17.62,4.376-36.637,4.376-56.583s-1.548-38.96-4.376-56.583
						C224.7,80.09,236.549,83.924,246.928,88.378z"/>
					<path style="fill:#302C58;" d="M193.292,208.63c-3.059,12.974-6.894,24.787-11.348,35.203
						c-13.941,5.731-29.241,8.947-45.235,8.947c-16.033,0-31.291-3.216-45.274-8.947c-4.415-10.38-8.249-22.23-11.309-35.164
						c17.623,2.828,36.637,4.376,56.583,4.376C156.655,213.045,175.669,211.494,193.292,208.63z"/>
					<path style="fill:#302C58;" d="M64.56,205.763c2.131,9.914,4.685,19.249,7.63,27.961c-14.251-9.217-26.374-21.34-35.591-35.591
						C45.311,201.077,54.645,203.632,64.56,205.763z"/>
					<path style="fill:#302C58;" d="M61.653,77.03c-2.867,17.623-4.415,36.637-4.415,56.583s1.548,38.96,4.376,56.583
						c-12.935-3.098-24.748-6.933-35.125-11.348c-5.77-13.98-8.947-29.241-8.947-45.235s3.177-31.294,8.947-45.235
						C36.869,83.924,48.719,80.09,61.653,77.03z"/>
					<path style="fill:#302C58;" d="M72.148,33.499c-2.906,8.715-5.461,18.086-7.591,27.961c-9.914,2.131-19.249,4.685-27.961,7.63
						C45.813,54.84,57.936,42.716,72.148,33.499z"/>
					<path style="fill:#302C58;" d="M181.944,23.393c4.454,10.38,8.249,22.23,11.348,35.164
						c-17.623-2.828-36.637-4.376-56.583-4.376s-38.96,1.551-56.583,4.376c3.059-12.935,6.894-24.787,11.348-35.164
						c13.941-5.77,29.241-8.947,45.235-8.947C152.702,14.446,168,17.623,181.944,23.393z"/>
					<path style="fill:#302C58;" d="M76.914,193.369c-3.33-18.473-5.229-38.689-5.229-59.756c0-21.07,1.896-41.283,5.229-59.795
						c18.512-3.33,38.728-5.19,59.795-5.19c21.031,0,41.283,1.86,59.759,5.19c3.369,18.512,5.229,38.729,5.229,59.795
						c0,21.031-1.857,41.244-5.19,59.756c-18.512,3.369-38.729,5.229-59.795,5.229C115.64,198.598,95.423,196.738,76.914,193.369z
						 M80.553,133.922c0,6.699,4.685,11.27,8.093,14.599c1.163,1.163,2.906,2.828,3.255,3.564c0.349,0.853,0.31,3.447,0.31,5.151
						c-0.039,4.685-0.078,11.113,4.493,15.723c4.61,4.571,11.038,4.571,15.723,4.493c1.743,0,4.337,0,5.151,0.31
						c0.736,0.349,2.44,2.092,3.564,3.255c3.33,3.408,7.901,8.093,14.599,8.093s11.27-4.685,14.599-8.093
						c1.124-1.163,2.828-2.903,3.564-3.255c0.814-0.349,3.408-0.31,5.151-0.31c4.685,0.078,11.113,0.078,15.684-4.493
						c4.61-4.61,4.571-11.038,4.532-15.723c-0.039-1.704-0.039-4.3,0.31-5.151c0.31-0.736,2.053-2.401,3.216-3.564
						c3.447-3.33,8.132-7.901,8.132-14.599c0-6.699-4.685-11.27-8.132-14.599c-1.163-1.124-2.903-2.828-3.216-3.564
						c-0.349-0.814-0.349-3.408-0.31-5.112c0.039-4.724,0.078-11.152-4.532-15.723c-4.571-4.607-10.999-4.571-15.684-4.532
						c-1.743,0.039-4.337,0.039-5.151-0.31c-0.736-0.31-2.44-2.053-3.564-3.216c-3.33-3.447-7.901-8.132-14.599-8.132
						c-6.699,0-11.27,4.685-14.599,8.132c-1.124,1.163-2.828,2.906-3.564,3.216c-0.814,0.349-3.447,0.349-5.151,0.31
						c-4.685-0.039-11.116-0.078-15.723,4.532c-4.571,4.571-4.532,10.999-4.493,15.723c0,1.704,0.039,4.297-0.31,5.112
						c-0.349,0.736-2.092,2.44-3.255,3.564C85.239,122.653,80.553,127.221,80.553,133.922z"/>
					<path style="fill:#222051;" d="M136.708,0c73.661,0,133.613,59.951,133.613,133.613s-59.951,133.613-133.613,133.613
						c-73.7,0-133.613-59.951-133.613-133.613C3.096,59.951,63.009,0,136.708,0z M255.876,133.613
						c0-15.994-3.216-31.294-8.947-45.235c-10.38-4.454-22.23-8.288-35.164-11.348c2.828,17.623,4.376,36.637,4.376,56.583
						s-1.548,38.96-4.376,56.583c12.935-3.098,24.787-6.933,35.164-11.348C252.66,164.903,255.876,149.607,255.876,133.613z
						 M208.859,61.46c9.875,2.131,19.249,4.685,27.961,7.63c-9.217-14.251-21.379-26.374-35.591-35.591
						C204.174,42.215,206.728,51.546,208.859,61.46z M236.82,198.093c-8.715,2.942-18.046,5.539-27.961,7.669
						c-2.131,9.914-4.685,19.249-7.63,27.961C215.483,224.506,227.642,212.347,236.82,198.093z M201.695,133.613
						c0-21.07-1.857-41.283-5.229-59.795c-18.473-3.33-38.729-5.19-59.759-5.19c-21.067,0-41.283,1.86-59.795,5.19
						c-3.33,18.512-5.229,38.729-5.229,59.795s1.896,41.283,5.229,59.756c18.512,3.369,38.729,5.229,59.795,5.229
						c21.07,0,41.283-1.86,59.795-5.229C199.837,174.857,201.695,154.641,201.695,133.613z M193.292,58.557
						c-3.098-12.935-6.894-24.787-11.348-35.164c-13.941-5.77-29.241-8.947-45.235-8.947c-15.994,0-31.291,3.177-45.235,8.947
						c-4.454,10.38-8.288,22.23-11.348,35.164c17.623-2.828,36.637-4.376,56.583-4.376
						C156.655,54.181,175.669,55.729,193.292,58.557z M181.944,243.833c4.454-10.416,8.288-22.23,11.348-35.203
						c-17.623,2.867-36.637,4.415-56.583,4.415s-38.96-1.551-56.583-4.376c3.059,12.935,6.894,24.787,11.309,35.164
						c13.98,5.731,29.241,8.947,45.274,8.947C152.703,252.78,168,249.564,181.944,243.833z M64.56,61.46
						c2.131-9.875,4.685-19.249,7.591-27.961C57.936,42.716,45.816,54.84,36.599,69.09C45.311,66.148,54.645,63.591,64.56,61.46z
						 M72.187,233.723c-2.942-8.715-5.5-18.046-7.63-27.961c-9.914-2.131-19.249-4.685-27.961-7.63
						C45.813,212.386,57.936,224.506,72.187,233.723z M57.239,133.613c0-19.946,1.548-38.96,4.415-56.583
						c-12.935,3.059-24.787,6.894-35.164,11.348c-5.77,13.941-8.947,29.241-8.947,45.235s3.177,31.254,8.947,45.235
						c10.38,4.415,22.191,8.249,35.125,11.348C58.789,172.573,57.239,153.556,57.239,133.613z"/>
					<path style="fill:#222051;" d="M182.795,119.32c3.447,3.33,8.132,7.901,8.132,14.599c0,6.698-4.685,11.27-8.132,14.599
						c-1.163,1.163-2.903,2.828-3.216,3.564c-0.349,0.853-0.349,3.447-0.31,5.151c0.039,4.685,0.078,11.113-4.532,15.723
						c-4.571,4.571-10.999,4.571-15.684,4.493c-1.743,0-4.337-0.039-5.151,0.31c-0.736,0.349-2.44,2.092-3.564,3.255
						c-3.33,3.408-7.901,8.093-14.599,8.093c-6.699,0-11.27-4.685-14.599-8.093c-1.124-1.163-2.828-2.903-3.564-3.255
						c-0.814-0.31-3.408-0.31-5.151-0.31c-4.685,0.078-11.116,0.078-15.723-4.493c-4.571-4.61-4.532-11.038-4.493-15.723
						c0-1.704,0.039-4.3-0.31-5.151c-0.349-0.736-2.092-2.401-3.255-3.564c-3.408-3.33-8.093-7.901-8.093-14.599
						c0-6.699,4.685-11.27,8.093-14.599c1.163-1.124,2.906-2.828,3.255-3.564c0.349-0.814,0.31-3.408,0.31-5.112
						c-0.039-4.724-0.078-11.152,4.493-15.723c4.61-4.607,11.038-4.571,15.723-4.532c1.704,0.039,4.337,0.039,5.151-0.31
						c0.736-0.31,2.44-2.053,3.564-3.216c3.33-3.447,7.901-8.132,14.599-8.132c6.699,0,11.27,4.685,14.599,8.132
						c1.124,1.163,2.828,2.906,3.564,3.216c0.814,0.349,3.408,0.349,5.151,0.31c4.685-0.039,11.113-0.078,15.684,4.532
						c4.61,4.571,4.571,10.999,4.532,15.723c-0.039,1.704-0.039,4.297,0.31,5.112C179.892,116.495,181.635,118.199,182.795,119.32z
						 M175.242,133.922c-0.619-0.929-2.209-2.518-3.255-3.486c-2.44-2.401-5.229-5.112-6.738-8.715
						c-1.548-3.757-1.512-7.705-1.473-11.192c0-1.316,0.039-3.369-0.156-4.493c-1.124-0.153-3.177-0.153-4.454-0.153
						c-3.525,0.039-7.474,0.078-11.191-1.473c-3.639-1.512-6.35-4.3-8.751-6.738c-0.968-1.007-2.554-2.633-3.486-3.255
						c-0.968,0.619-2.518,2.245-3.525,3.255c-2.401,2.44-5.073,5.229-8.715,6.738c-3.717,1.548-7.669,1.512-11.192,1.473
						c-1.316,0-3.33,0-4.454,0.153c-0.192,1.124-0.192,3.177-0.153,4.493c0,3.486,0.039,7.435-1.512,11.192
						c-1.473,3.603-4.261,6.314-6.738,8.715c-1.007,0.968-2.594,2.557-3.255,3.486c0.658,0.968,2.245,2.518,3.255,3.525
						c2.479,2.401,5.268,5.112,6.738,8.712c1.551,3.717,1.512,7.708,1.512,11.191c-0.039,1.316-0.039,3.33,0.153,4.454
						c1.124,0.192,3.137,0.192,4.454,0.156c0.466,0,0.929,0,1.394,0c3.137,0,6.545,0.156,9.797,1.512
						c3.639,1.512,6.314,4.258,8.715,6.738c1.007,1.007,2.557,2.633,3.525,3.255c0.929-0.619,2.518-2.245,3.525-3.255
						c2.362-2.479,5.073-5.229,8.676-6.738c3.757-1.548,7.705-1.512,11.231-1.512c1.277,0.039,3.33,0.039,4.454-0.156
						c0.192-1.124,0.156-3.137,0.156-4.454c-0.039-3.486-0.078-7.474,1.473-11.191c1.512-3.6,4.297-6.311,6.738-8.712
						C173.036,136.438,174.622,134.89,175.242,133.922z"/>
				</g>
			</g>
		</g>
	</g>
</g>
<g>
</g>
<g>
</g>
<g>
</g>
<g>
</g>
<g>
</g>
<g>
</g>
<g>
</g>
<g>
</g>
<g>
</g>
<g>
</g>
<g>
</g>
<g>
</g>
<g>
</g>
<g>
</g>
<g>
</g>
</svg>
